<svg width="46" height="43" viewBox="0 0 46 43" fill="none" xmlns="http://www.w3.org/2000/svg">
<path d="M42.19 0H3.07C1.37 0 0 1.37 0 3.07V39.82C0 41.52 1.37 42.89 3.07 42.89H42.19C43.89 42.89 45.26 41.52 45.26 39.82V3.07C45.26 1.37 43.89 0 42.19 0ZM3.07 3.07H42.19V38.36H3.07V3.07ZM40.66 36.82H4.6V26.98C4.6 25.9 4.98 24.86 5.67 24.03L14.61 13.31C15.57 12.19 17.33 12.26 18.2 13.45L28.38 27.24L33.61 21.72C34.52 20.76 36.04 20.76 36.96 21.72L39.57 24.81C40.27 25.64 40.66 26.69 40.66 27.78V36.83V36.82ZM30.69 11.12C30.69 8.79 32.58 6.9 34.91 6.9C37.24 6.9 39.13 8.79 39.13 11.12C39.13 13.45 37.24 15.34 34.91 15.34C32.58 15.34 30.69 13.45 30.69 11.12Z" fill="#168C8B"/>
</svg>
